solid OpenSCAD_Model
  facet normal -1 0 0
    outer loop
      vertex -11 18.5 -2.5
      vertex -11 -16.85 0.7
      vertex -11 18.5 2.5
    endloop
  endfacet
  facet normal -1 0 0
    outer loop
      vertex -11 -21.5 -2.5
      vertex -11 -16.85 0.7
      vertex -11 18.5 -2.5
    endloop
  endfacet
  facet normal -1 -0 0
    outer loop
      vertex -11 -16.85 0.7
      vertex -11 -21.5 -2.5
      vertex -11 -19.15 0.7
    endloop
  endfacet
  facet normal -1 0 0
    outer loop
      vertex -11 -21.5 2.5
      vertex -11 -19.15 0.7
      vertex -11 -21.5 -2.5
    endloop
  endfacet
  facet normal -1 0 0
    outer loop
      vertex -11 -19.15 0.7
      vertex -11 -21.5 2.5
      vertex -11 -19.15 2.5
    endloop
  endfacet
  facet normal -1 -0 0
    outer loop
      vertex -11 18.5 2.5
      vertex -11 -16.85 0.7
      vertex -11 -16.85 2.5
    endloop
  endfacet
  facet normal -0 0 1
    outer loop
      vertex -11 -19.15 2.5
      vertex 11 -21.5 2.5
      vertex 11 -19.15 2.5
    endloop
  endfacet
  facet normal 0 0 1
    outer loop
      vertex 11 -21.5 2.5
      vertex -11 -19.15 2.5
      vertex -11 -21.5 2.5
    endloop
  endfacet
  facet normal 0 0 1
    outer loop
      vertex 11 18.5 2.5
      vertex 9.5 16.85 2.5
      vertex 11 -16.85 2.5
    endloop
  endfacet
  facet normal -0 0 1
    outer loop
      vertex 4 18.5 2.5
      vertex 9.5 16.85 2.5
      vertex 11 18.5 2.5
    endloop
  endfacet
  facet normal 0 0 1
    outer loop
      vertex 9.5 16.85 2.5
      vertex 4 18.5 2.5
      vertex 4 16.85 2.5
    endloop
  endfacet
  facet normal 0 0 1
    outer loop
      vertex 11 -16.85 2.5
      vertex 9.5 16.85 2.5
      vertex 9.5 -16.85 2.5
    endloop
  endfacet
  facet normal 0 0 1
    outer loop
      vertex -4 18.5 2.5
      vertex -9.5 16.85 2.5
      vertex -4 16.85 2.5
    endloop
  endfacet
  facet normal -0 0 1
    outer loop
      vertex -11 18.5 2.5
      vertex -9.5 16.85 2.5
      vertex -4 18.5 2.5
    endloop
  endfacet
  facet normal 0 0 1
    outer loop
      vertex -11 -16.85 2.5
      vertex -9.5 16.85 2.5
      vertex -11 18.5 2.5
    endloop
  endfacet
  facet normal 0 0 1
    outer loop
      vertex -9.5 16.85 2.5
      vertex -11 -16.85 2.5
      vertex -9.5 -16.85 2.5
    endloop
  endfacet
  facet normal 1 0 0
    outer loop
      vertex 11 -19.15 2.5
      vertex 11 -21.5 2.5
      vertex 11 -19.15 0.7
    endloop
  endfacet
  facet normal 1 0 0
    outer loop
      vertex 11 -16.85 0.7
      vertex 11 18.5 2.5
      vertex 11 -16.85 2.5
    endloop
  endfacet
  facet normal 1 0 0
    outer loop
      vertex 11 18.5 2.5
      vertex 11 -16.85 0.7
      vertex 11 18.5 -2.5
    endloop
  endfacet
  facet normal 1 0 0
    outer loop
      vertex 11 -21.5 -2.5
      vertex 11 -16.85 0.7
      vertex 11 -19.15 0.7
    endloop
  endfacet
  facet normal 1 0 0
    outer loop
      vertex 11 -16.85 0.7
      vertex 11 -21.5 -2.5
      vertex 11 18.5 -2.5
    endloop
  endfacet
  facet normal 1 0 0
    outer loop
      vertex 11 -21.5 -2.5
      vertex 11 -19.15 0.7
      vertex 11 -21.5 2.5
    endloop
  endfacet
  facet normal 0 1 0
    outer loop
      vertex 11 18.5 2.5
      vertex 4 18.5 0.5
      vertex 4 18.5 2.5
    endloop
  endfacet
  facet normal 0 1 0
    outer loop
      vertex 4 18.5 0.5
      vertex 11 18.5 -2.5
      vertex -4 18.5 0.5
    endloop
  endfacet
  facet normal 0 1 -0
    outer loop
      vertex 11 18.5 -2.5
      vertex 4 18.5 0.5
      vertex 11 18.5 2.5
    endloop
  endfacet
  facet normal 0 1 -0
    outer loop
      vertex -4 18.5 0.5
      vertex -11 18.5 2.5
      vertex -4 18.5 2.5
    endloop
  endfacet
  facet normal 0 1 0
    outer loop
      vertex -4 18.5 0.5
      vertex -11 18.5 -2.5
      vertex -11 18.5 2.5
    endloop
  endfacet
  facet normal 0 1 0
    outer loop
      vertex -11 18.5 -2.5
      vertex -4 18.5 0.5
      vertex 11 18.5 -2.5
    endloop
  endfacet
  facet normal 0 0 -1
    outer loop
      vertex 11 -21.5 -2.5
      vertex 9.5 -16.85 -2.5
      vertex 11 18.5 -2.5
    endloop
  endfacet
  facet normal 0 0 -1
    outer loop
      vertex 11 -21.5 -2.5
      vertex 5 -16.85 -2.5
      vertex 9.5 -16.85 -2.5
    endloop
  endfacet
  facet normal 0 0 -1
    outer loop
      vertex 5 -16.85 -2.5
      vertex -5 -16.85 -2.5
      vertex 5 16.85 -2.5
    endloop
  endfacet
  facet normal 0 0 -1
    outer loop
      vertex 11 -21.5 -2.5
      vertex -5 -16.85 -2.5
      vertex 5 -16.85 -2.5
    endloop
  endfacet
  facet normal 0 0 -1
    outer loop
      vertex -11 -21.5 -2.5
      vertex -5 -16.85 -2.5
      vertex 11 -21.5 -2.5
    endloop
  endfacet
  facet normal 0 0 -1
    outer loop
      vertex -11 18.5 -2.5
      vertex -9.5 -16.85 -2.5
      vertex -11 -21.5 -2.5
    endloop
  endfacet
  facet normal -0 0 -1
    outer loop
      vertex -5 -16.85 -2.5
      vertex -11 -21.5 -2.5
      vertex -9.5 -16.85 -2.5
    endloop
  endfacet
  facet normal 0 0 -1
    outer loop
      vertex 9.5 16.85 -2.5
      vertex 11 18.5 -2.5
      vertex 9.5 -16.85 -2.5
    endloop
  endfacet
  facet normal 0 0 -1
    outer loop
      vertex 5 16.85 -2.5
      vertex 11 18.5 -2.5
      vertex 9.5 16.85 -2.5
    endloop
  endfacet
  facet normal 0 0 -1
    outer loop
      vertex -5 16.85 -2.5
      vertex 5 16.85 -2.5
      vertex -5 -16.85 -2.5
    endloop
  endfacet
  facet normal 0 0 -1
    outer loop
      vertex -5 16.85 -2.5
      vertex 11 18.5 -2.5
      vertex 5 16.85 -2.5
    endloop
  endfacet
  facet normal 0 0 -1
    outer loop
      vertex -11 18.5 -2.5
      vertex -5 16.85 -2.5
      vertex -9.5 16.85 -2.5
    endloop
  endfacet
  facet normal 0 0 -1
    outer loop
      vertex -5 16.85 -2.5
      vertex -11 18.5 -2.5
      vertex 11 18.5 -2.5
    endloop
  endfacet
  facet normal 0 0 -1
    outer loop
      vertex -9.5 -16.85 -2.5
      vertex -11 18.5 -2.5
      vertex -9.5 16.85 -2.5
    endloop
  endfacet
  facet normal 0 -1 0
    outer loop
      vertex -11 -21.5 -2.5
      vertex 11 -21.5 2.5
      vertex -11 -21.5 2.5
    endloop
  endfacet
  facet normal 0 -1 -0
    outer loop
      vertex 11 -21.5 2.5
      vertex -11 -21.5 -2.5
      vertex 11 -21.5 -2.5
    endloop
  endfacet
  facet normal 1 0 0
    outer loop
      vertex -9.5 -16.85 0.7
      vertex -9.5 16.85 2.5
      vertex -9.5 -16.85 2.5
    endloop
  endfacet
  facet normal 1 0 0
    outer loop
      vertex -9.5 16.85 2.5
      vertex -9.5 -16.85 0.7
      vertex -9.5 16.85 -2.5
    endloop
  endfacet
  facet normal 1 0 0
    outer loop
      vertex -9.5 16.85 -2.5
      vertex -9.5 -16.85 0.7
      vertex -9.5 -16.85 -2.5
    endloop
  endfacet
  facet normal -1 0 0
    outer loop
      vertex 9.5 -16.85 0.7
      vertex 9.5 16.85 -2.5
      vertex 9.5 -16.85 -2.5
    endloop
  endfacet
  facet normal -1 0 0
    outer loop
      vertex 9.5 16.85 -2.5
      vertex 9.5 -16.85 0.7
      vertex 9.5 16.85 2.5
    endloop
  endfacet
  facet normal -1 -0 0
    outer loop
      vertex 9.5 16.85 2.5
      vertex 9.5 -16.85 0.7
      vertex 9.5 -16.85 2.5
    endloop
  endfacet
  facet normal 0 -1 0
    outer loop
      vertex -11 -16.85 0.7
      vertex -9.5 -16.85 2.5
      vertex -11 -16.85 2.5
    endloop
  endfacet
  facet normal 0 -1 -0
    outer loop
      vertex -9.5 -16.85 2.5
      vertex -11 -16.85 0.7
      vertex -9.5 -16.85 0.7
    endloop
  endfacet
  facet normal 0 -1 0
    outer loop
      vertex 9.5 -16.85 0.7
      vertex 11 -16.85 2.5
      vertex 9.5 -16.85 2.5
    endloop
  endfacet
  facet normal 0 -1 -0
    outer loop
      vertex 11 -16.85 2.5
      vertex 9.5 -16.85 0.7
      vertex 11 -16.85 0.7
    endloop
  endfacet
  facet normal 0 1 0
    outer loop
      vertex 9.5 -16.85 0.7
      vertex 5 -16.85 -1.2
      vertex -9.5 -16.85 0.7
    endloop
  endfacet
  facet normal 0 1 -0
    outer loop
      vertex 9.5 -16.85 -2.5
      vertex 5 -16.85 -1.2
      vertex 9.5 -16.85 0.7
    endloop
  endfacet
  facet normal 0 1 0
    outer loop
      vertex 5 -16.85 -1.2
      vertex 9.5 -16.85 -2.5
      vertex 5 -16.85 -2.5
    endloop
  endfacet
  facet normal 0 1 -0
    outer loop
      vertex -5 -16.85 -1.2
      vertex -9.5 -16.85 0.7
      vertex 5 -16.85 -1.2
    endloop
  endfacet
  facet normal 0 1 0
    outer loop
      vertex -9.5 -16.85 -2.5
      vertex -5 -16.85 -1.2
      vertex -5 -16.85 -2.5
    endloop
  endfacet
  facet normal 0 1 0
    outer loop
      vertex -5 -16.85 -1.2
      vertex -9.5 -16.85 -2.5
      vertex -9.5 -16.85 0.7
    endloop
  endfacet
  facet normal 0 -1 0
    outer loop
      vertex -9.5 16.85 2.5
      vertex -4 16.85 0.5
      vertex -4 16.85 2.5
    endloop
  endfacet
  facet normal 0 -1 -0
    outer loop
      vertex -4 16.85 0.5
      vertex -5 16.85 -1.2
      vertex 4 16.85 0.5
    endloop
  endfacet
  facet normal 0 -1 0
    outer loop
      vertex -9.5 16.85 2.5
      vertex -5 16.85 -1.2
      vertex -4 16.85 0.5
    endloop
  endfacet
  facet normal 0 -1 0
    outer loop
      vertex -9.5 16.85 -2.5
      vertex -5 16.85 -1.2
      vertex -9.5 16.85 2.5
    endloop
  endfacet
  facet normal 0 -1 -0
    outer loop
      vertex -5 16.85 -1.2
      vertex -9.5 16.85 -2.5
      vertex -5 16.85 -2.5
    endloop
  endfacet
  facet normal 0 -1 0
    outer loop
      vertex 4 16.85 0.5
      vertex 9.5 16.85 2.5
      vertex 4 16.85 2.5
    endloop
  endfacet
  facet normal 0 -1 0
    outer loop
      vertex 5 16.85 -1.2
      vertex 4 16.85 0.5
      vertex -5 16.85 -1.2
    endloop
  endfacet
  facet normal 0 -1 0
    outer loop
      vertex 5 16.85 -1.2
      vertex 9.5 16.85 2.5
      vertex 4 16.85 0.5
    endloop
  endfacet
  facet normal 0 -1 0
    outer loop
      vertex 9.5 16.85 -2.5
      vertex 5 16.85 -1.2
      vertex 5 16.85 -2.5
    endloop
  endfacet
  facet normal 0 -1 0
    outer loop
      vertex 5 16.85 -1.2
      vertex 9.5 16.85 -2.5
      vertex 9.5 16.85 2.5
    endloop
  endfacet
  facet normal 1 -0 0
    outer loop
      vertex -4 16.85 2.5
      vertex -4 18.5 0.5
      vertex -4 18.5 2.5
    endloop
  endfacet
  facet normal 1 0 0
    outer loop
      vertex -4 18.5 0.5
      vertex -4 16.85 2.5
      vertex -4 16.85 0.5
    endloop
  endfacet
  facet normal -1 0 0
    outer loop
      vertex 4 16.85 0.5
      vertex 4 18.5 2.5
      vertex 4 18.5 0.5
    endloop
  endfacet
  facet normal -1 -0 0
    outer loop
      vertex 4 18.5 2.5
      vertex 4 16.85 0.5
      vertex 4 16.85 2.5
    endloop
  endfacet
  facet normal -0 0 1
    outer loop
      vertex -4 18.5 0.5
      vertex 4 16.85 0.5
      vertex 4 18.5 0.5
    endloop
  endfacet
  facet normal 0 0 1
    outer loop
      vertex 4 16.85 0.5
      vertex -4 18.5 0.5
      vertex -4 16.85 0.5
    endloop
  endfacet
  facet normal -0 0 1
    outer loop
      vertex 9.5 -16.85 0.7
      vertex 11 -19.15 0.7
      vertex 11 -16.85 0.7
    endloop
  endfacet
  facet normal -0 0 1
    outer loop
      vertex -9.5 -16.85 0.7
      vertex 11 -19.15 0.7
      vertex 9.5 -16.85 0.7
    endloop
  endfacet
  facet normal 0 0 1
    outer loop
      vertex -11 -19.15 0.7
      vertex -9.5 -16.85 0.7
      vertex -11 -16.85 0.7
    endloop
  endfacet
  facet normal 0 0 1
    outer loop
      vertex -9.5 -16.85 0.7
      vertex -11 -19.15 0.7
      vertex 11 -19.15 0.7
    endloop
  endfacet
  facet normal 0 1 -0
    outer loop
      vertex 11 -19.15 0.7
      vertex -11 -19.15 2.5
      vertex 11 -19.15 2.5
    endloop
  endfacet
  facet normal 0 1 0
    outer loop
      vertex -11 -19.15 2.5
      vertex 11 -19.15 0.7
      vertex -11 -19.15 0.7
    endloop
  endfacet
  facet normal -1 0 0
    outer loop
      vertex -5 -16.85 -2.5
      vertex -5 16.85 -1.2
      vertex -5 16.85 -2.5
    endloop
  endfacet
  facet normal -1 -0 0
    outer loop
      vertex -5 16.85 -1.2
      vertex -5 -16.85 -2.5
      vertex -5 -16.85 -1.2
    endloop
  endfacet
  facet normal -0 0 1
    outer loop
      vertex -5 16.85 -1.2
      vertex 5 -16.85 -1.2
      vertex 5 16.85 -1.2
    endloop
  endfacet
  facet normal 0 0 1
    outer loop
      vertex 5 -16.85 -1.2
      vertex -5 16.85 -1.2
      vertex -5 -16.85 -1.2
    endloop
  endfacet
  facet normal 1 -0 0
    outer loop
      vertex 5 -16.85 -1.2
      vertex 5 16.85 -2.5
      vertex 5 16.85 -1.2
    endloop
  endfacet
  facet normal 1 0 0
    outer loop
      vertex 5 16.85 -2.5
      vertex 5 -16.85 -1.2
      vertex 5 -16.85 -2.5
    endloop
  endfacet
endsolid OpenSCAD_Model
